# xmcd
#
# Track frame offsets: 
#        182
#        24182
#        58482
#        89520
#        109692
#        138162
#        160955
#        182515
#
# Disc length: 2839 seconds
#
# Revision: 1
# Processed by: cddbd v1.5.2PL0 Copyright (c) Steve Scherf et al.
# Submitted via: ExactAudioCopy v1.0b6
#
DISCID=630b1508
DTITLE=Hank Jones  and Tommy Flanagan On Two Concert Grand Pianos - I'm 
DTITLE=All Smiles
DYEAR=1983
DGENRE=Jazz
TTITLE0=Relaxin' at Camarillo
TTITLE1=In a Sentimental Mood
TTITLE2=Some Day My Prince Will Come
TTITLE3=Afternoon in paris
TTITLE4=Au Privave
TTITLE5=I'm All Smiles
TTITLE6=Rockin' in Rhythm
TTITLE7=Con Alma
EXTD=YEAR: 1984
EXTT0=
EXTT1=
EXTT2=
EXTT3=
EXTT4=
EXTT5=
EXTT6=
EXTT7=
PLAYORDER=
